# xmcd CD database file
# Copyright (C) 1997 Ti Kan
# 
# Track frame offsets:
#     150
#     23900
#     42012
#     61362
#     84450
#     102387
#     120325
#     130750
#     156037
#     168487
#     185250
#     201162
#     215912
#     233275
#     255725
#     279862
#     306437
# 
# Disc length: 4349 seconds
# 
# Revision: 1
# Processed by: cddbd v1.4b41PL1 Copyright (c) Steve Scherf et al.
# Submitted via: DiscPlay 4.0.3
# 
DISCID=e110fb11
DTITLE=Various Artist - Schmuse Songs
DYEAR=1900
DGENRE=
TTITLE0=Killing Me Softly With Her Song - Johnny Mathis
TTITLE1=No Ordinary Love - Sade
TTITLE2=Don't Dream It's Over - Paul Young
TTITLE3=Ohne Dich - Selig
TTITLE4=You (Accoustic Version) - Ten Sharp
TTITLE5=The Captain of Her Heart - Kurt Maloo
TTITLE6=Miracle(Non Electric Mix) -Taucher
TTITLE7=Early Morning Love - Lou Rawls
TTITLE8=I buy American Records - Sait Etienne
TTITLE9=Blue Hat for a Blue Day(Accoustic Version 93)-Nick Heward
TTITLE10=Let's Stay Together - the Pasadenas
TTITLE11=Tears on My Pillow(I Can't Take IT)-Johnny Nash
TTITLE12=Wherever Would I Be-Dust Springfield and Daryl Hall
TTITLE13=Love..Thy Will Be Done-Martika
TTITLE14=Shower You With Love-Peabo Bryson
TTITLE15=Harbour Lights-Boz Scaggs
TTITLE16=Can't Get Out of My Head - Elo
EXTD=
EXTT0=
EXTT1=
EXTT2=
EXTT3=
EXTT4=
EXTT5=
EXTT6=
EXTT7=
EXTT8=
EXTT9=
EXTT10=
EXTT11=
EXTT12=
EXTT13=
EXTT14=
EXTT15=
EXTT16=
PLAYORDER=
